  0
SECTION
  2
HEADER
  9
$ACADVER
  1
AC1009
  9
$EXTMIN
 10
-5.0
 20
-5.0
  9
$EXTMAX
 10
125.0
 20
165.0
  0
ENDSEC
  0
SECTION
  2
TABLES
  0
TABLE
  2
LTYPE
 70
1
  0
LTYPE
  2
CONTINUOUS
 70
0
  3
Solid line
 72
65
 73
0
 40
0.0
  0
ENDTAB
  0
TABLE
  2
LAYER
 70
5
  0
LAYER
  2
OUTLINE
 70
0
 62
7
  6
CONTINUOUS
  0
LAYER
  2
M3_HOLES
 70
0
 62
1
  6
CONTINUOUS
  0
LAYER
  2
M4_HOLES
 70
0
 62
3
  6
CONTINUOUS
  0
LAYER
  2
M5_HOLES
 70
0
 62
5
  6
CONTINUOUS
  0
LAYER
  2
LEADSCREW
 70
0
 62
6
  6
CONTINUOUS
  0
ENDTAB
  0
ENDSEC
  0
SECTION
  2
ENTITIES

  0
COMMENT
  1
C-BEAM GANTRY PLATE 120x160mm
Dimensions in mm
All holes are clearance holes (not tapped)
M3 clearance = 3.2mm dia (16 holes, layer M3_HOLES)
M4 clearance = 4.3mm dia (4 holes, layer M4_HOLES)
M5 clearance = 5.3mm dia (8 holes, layer M5_HOLES)
Lead screw clearance = 9.0mm dia (1 hole, layer LEADSCREW)
Plate: 120 x 160 x 8mm 6061-T6 Aluminium

  0
COMMENT
  1
=== HOLE REFERENCE TABLE ===
M3 HOLES (Dia 3.2mm) - MGN9H Carriage Mounts (16 total)
Rail 1 Left (X=20mm):
  Carriage A top:    (16, 30), (24, 30), (16, 50), (24, 50)
  Carriage B bottom: (16, 110), (24, 110), (16, 130), (24, 130)
Rail 2 Right (X=100mm):
  Carriage A top:    (96, 30), (104, 30), (96, 50), (104, 50)
  Carriage B bottom: (96, 110), (104, 110), (96, 130), (104, 130)

M4 HOLES (Dia 4.3mm) - TR8x8 Lead Screw Nut (4 total)
  (52, 72), (68, 72), (52, 88), (68, 88)

M5 HOLES (Dia 5.3mm) - Makita RT0702 Adapter Mounts (8 total)
Adapter 1 upper:  (30, 20), (90, 20), (30, 60), (90, 60)
Adapter 2 lower:  (30, 100), (90, 100), (30, 140), (90, 140)

LEAD SCREW HOLE (Dia 9.0mm) - 1 total
  Center: (60, 80)


  0
LINE
  8
OUTLINE
 10
0.0
 20
0.0
 11
120.0
 21
0.0
  0
LINE
  8
OUTLINE
 10
120.0
 20
0.0
 11
120.0
 21
160.0
  0
LINE
  8
OUTLINE
 10
120.0
 20
160.0
 11
0.0
 21
160.0
  0
LINE
  8
OUTLINE
 10
0.0
 20
160.0
 11
0.0
 21
0.0

  0
COMMAND
  1
M3 HOLES - Rail 1 Left (X=20) Carriage A Top

  0
CIRCLE
  8
M3_HOLES
 10
16.0
 20
30.0
 30
0.0
 40
1.6
  0
CIRCLE
  8
M3_HOLES
 10
24.0
 20
30.0
 30
0.0
 40
1.6
  0
CIRCLE
  8
M3_HOLES
 10
16.0
 20
50.0
 30
0.0
 40
1.6
  0
CIRCLE
  8
M3_HOLES
 10
24.0
 20
50.0
 30
0.0
 40
1.6

  0
COMMAND
  1
M3 HOLES - Rail 1 Left (X=20) Carriage B Bottom

  0
CIRCLE
  8
M3_HOLES
 10
16.0
 20
110.0
 30
0.0
 40
1.6
  0
CIRCLE
  8
M3_HOLES
 10
24.0
 20
110.0
 30
0.0
 40
1.6
  0
CIRCLE
  8
M3_HOLES
 10
16.0
 20
130.0
 30
0.0
 40
1.6
  0
CIRCLE
  8
M3_HOLES
 10
24.0
 20
130.0
 30
0.0
 40
1.6

  0
COMMAND
  1
M3 HOLES - Rail 2 Right (X=100) Carriage A Top

  0
CIRCLE
  8
M3_HOLES
 10
96.0
 20
30.0
 30
0.0
 40
1.6
  0
CIRCLE
  8
M3_HOLES
 10
104.0
 20
30.0
 30
0.0
 40
1.6
  0
CIRCLE
  8
M3_HOLES
 10
96.0
 20
50.0
 30
0.0
 40
1.6
  0
CIRCLE
  8
M3_HOLES
 10
104.0
 20
50.0
 30
0.0
 40
1.6

  0
COMMAND
  1
M3 HOLES - Rail 2 Right (X=100) Carriage B Bottom

  0
CIRCLE
  8
M3_HOLES
 10
96.0
 20
110.0
 30
0.0
 40
1.6
  0
CIRCLE
  8
M3_HOLES
 10
104.0
 20
110.0
 30
0.0
 40
1.6
  0
CIRCLE
  8
M3_HOLES
 10
96.0
 20
130.0
 30
0.0
 40
1.6
  0
CIRCLE
  8
M3_HOLES
 10
104.0
 20
130.0
 30
0.0
 40
1.6

  0
COMMAND
  1
M4 HOLES - TR8x8 Lead Screw Nut (16mm square pattern, center at 60,80)

  0
CIRCLE
  8
M4_HOLES
 10
52.0
 20
72.0
 30
0.0
 40
2.15
  0
CIRCLE
  8
M4_HOLES
 10
68.0
 20
72.0
 30
0.0
 40
2.15
  0
CIRCLE
  8
M4_HOLES
 10
52.0
 20
88.0
 30
0.0
 40
2.15
  0
CIRCLE
  8
M4_HOLES
 10
68.0
 20
88.0
 30
0.0
 40
2.15

  0
COMMAND
  1
M5 HOLES - Router Adapter 1 Upper (center at 60,40)

  0
CIRCLE
  8
M5_HOLES
 10
30.0
 20
20.0
 30
0.0
 40
2.65
  0
CIRCLE
  8
M5_HOLES
 10
90.0
 20
20.0
 30
0.0
 40
2.65
  0
CIRCLE
  8
M5_HOLES
 10
30.0
 20
60.0
 30
0.0
 40
2.65
  0
CIRCLE
  8
M5_HOLES
 10
90.0
 20
60.0
 30
0.0
 40
2.65

  0
COMMAND
  1
M5 HOLES - Router Adapter 2 Lower (center at 60,120)

  0
CIRCLE
  8
M5_HOLES
 10
30.0
 20
100.0
 30
0.0
 40
2.65
  0
CIRCLE
  8
M5_HOLES
 10
90.0
 20
100.0
 30
0.0
 40
2.65
  0
CIRCLE
  8
M5_HOLES
 10
30.0
 20
140.0
 30
0.0
 40
2.65
  0
CIRCLE
  8
M5_HOLES
 10
90.0
 20
140.0
 30
0.0
 40
2.65

  0
COMMAND
  1
LEAD SCREW CLEARANCE HOLE - Dia 9.0mm at center (60,80)

  0
CIRCLE
  8
LEADSCREW
 10
60.0
 20
80.0
 30
0.0
 40
4.5

  0
ENDSEC
  0
EOF
